<svg width="37" height="39" viewBox="0 0 37 39" fill="none" xmlns="http://www.w3.org/2000/svg">
<path fill-rule="evenodd" clip-rule="evenodd" d="M35.9851 0.182527C36.1616 0.291714 36.3074 0.444184 36.4085 0.625481C36.5095 0.806777 36.5627 1.01089 36.5628 1.21847V37.7812C36.5628 38.1045 36.4344 38.4145 36.2058 38.643C35.9772 38.8716 35.6672 39 35.344 39H28.0315C27.7082 39 27.3982 38.8716 27.1697 38.643C26.9411 38.4145 26.8127 38.1045 26.8127 37.7812V34.125H24.3752V37.7812C24.3752 38.1045 24.2468 38.4145 24.0182 38.643C23.7897 38.8716 23.4797 39 23.1564 39H1.21876C0.895524 39 0.585528 38.8716 0.356966 38.643C0.128405 38.4145 0 38.1045 0 37.7812V24.3749C0.00019414 24.1192 0.0807991 23.8701 0.230406 23.6627C0.380013 23.4554 0.591045 23.3003 0.833631 23.2195L14.6251 18.6223V10.9685C14.6251 10.7424 14.688 10.5207 14.8069 10.3283C14.9257 10.1359 15.0957 9.98029 15.2979 9.87897L34.798 0.128902C34.984 0.0358029 35.1907 -0.00814474 35.3985 0.00124187C35.6063 0.0106285 35.8082 0.073037 35.9851 0.182527ZM14.6251 21.1915L2.43752 25.2524V36.5625H14.6251V21.1915ZM17.0626 36.5625H21.9377V32.9062C21.9377 32.583 22.0661 32.273 22.2946 32.0444C22.5232 31.8158 22.8332 31.6874 23.1564 31.6874H28.0315C28.3547 31.6874 28.6647 31.8158 28.8932 32.0444C29.1218 32.273 29.2502 32.583 29.2502 32.9062V36.5625H34.1253V3.19042L17.0626 11.7217V36.5625Z" fill="white"/>
</svg>
