<svg width="77" height="77" viewBox="0 0 77 77" fill="none" xmlns="http://www.w3.org/2000/svg">
<path d="M38.917 27.2969H10.0444C9.42152 27.2969 8.91666 27.8019 8.91666 28.4247C8.91666 29.0476 9.42152 29.5524 10.0444 29.5524H38.9172C39.5401 29.5524 40.045 29.0474 40.045 28.4247C40.045 27.8019 39.5401 27.2969 38.917 27.2969Z" fill="white"/>
<path d="M38.917 35.2217H10.0444C9.42152 35.2217 8.91666 35.7267 8.91666 36.3495C8.91666 36.9722 9.42152 37.4772 10.0444 37.4772H38.9172C39.5401 37.4772 40.045 36.9722 40.045 36.3495C40.045 35.7267 39.5401 35.2217 38.917 35.2217Z" fill="white"/>
<path d="M38.917 43.1465H10.0444C9.42152 43.1465 8.91666 43.6515 8.91666 44.2743C8.91666 44.897 9.42152 45.402 10.0444 45.402H38.9172C39.5401 45.402 40.045 44.897 40.045 44.2743C40.045 43.6515 39.5401 43.1465 38.917 43.1465Z" fill="white"/>
<path d="M40.045 52.1996C40.045 51.5766 39.5401 51.0718 38.9172 51.0718H10.0444C9.42152 51.0718 8.91666 51.5768 8.91666 52.1996C8.91666 52.8223 9.42152 53.3273 10.0444 53.3273H38.9172C39.5401 53.3273 40.045 52.8225 40.045 52.1996Z" fill="white"/>
<path d="M10.0444 62.686C9.42152 62.686 8.91666 63.191 8.91666 63.8138C8.91666 64.4366 9.42152 64.9416 10.0444 64.9416H24.5177C25.1406 64.9416 25.6455 64.4366 25.6455 63.8138C25.6455 63.191 25.1406 62.686 24.5177 62.686H10.0444Z" fill="white"/>
<path d="M51.914 13.9643V10.3047C51.914 8.91061 50.7799 7.77637 49.3856 7.77637H26.2304C24.8363 7.77637 23.7022 8.91061 23.7022 10.3047V13.9643C23.7022 15.3585 24.8363 16.4926 26.2304 16.4926H28.1858C28.8087 16.4926 29.3136 15.9875 29.3136 15.3648C29.3136 14.7419 28.8087 14.237 28.1858 14.237H26.2304C26.0802 14.237 25.9579 14.1147 25.9579 13.9645V10.3047C25.9579 10.1545 26.0802 10.0321 26.2304 10.0321H49.3856C49.536 10.0321 49.6582 10.1543 49.6582 10.3047V13.9643C49.6582 14.1146 49.536 14.2368 49.3856 14.2368H33.4585C32.8356 14.2368 32.3307 14.7419 32.3307 15.3646C32.3307 15.9875 32.8356 16.4924 33.4585 16.4924H49.3857C50.7799 16.4927 51.914 15.3585 51.914 13.9643Z" fill="white"/>
<path d="M60.347 68.773C59.724 68.773 59.2192 69.278 59.2192 69.9008V71.4196C59.2192 73.2527 57.7277 74.7443 55.8943 74.7443H6.00044C4.16733 74.7443 2.67576 73.2529 2.67576 71.4196V17.2089C2.67576 16.9648 2.70433 16.7254 2.75531 16.4924H13.0244C15.1684 16.4924 16.9126 14.7482 16.9126 12.6042V2.33527C17.1456 2.28428 17.3849 2.25571 17.6289 2.25571H55.8942C57.7274 2.25571 59.219 3.74713 59.219 5.58039V20.5957C59.219 21.2186 59.7239 21.7235 60.3468 21.7235C60.9697 21.7235 61.4746 21.2185 61.4746 20.5957V5.58024C61.4747 2.5034 58.9713 0 55.8943 0H17.6291C16.1386 0 14.7371 0.580508 13.6831 1.63445L2.05449 13.2631C1.00055 14.317 0.420197 15.7184 0.420197 17.209V71.4198C0.420197 74.4967 2.92345 77 6.00044 77H55.8943C58.9713 77 61.4747 74.4966 61.4747 71.4198V69.901C61.4747 69.278 60.9699 68.773 60.347 68.773ZM14.6571 3.8506V12.6042C14.6571 13.5045 13.9247 14.2369 13.0244 14.2369H4.2708L14.6571 3.8506Z" fill="white"/>
<path d="M75.7942 40.3045C76.5858 39.1424 76.7907 37.709 76.3562 36.3717C75.9217 35.0345 74.9134 33.9953 73.5899 33.5206C72.7119 33.2057 72.1262 32.3996 72.0982 31.4672C72.0556 30.0618 71.3787 28.7817 70.241 27.9551C69.1036 27.1287 67.6767 26.8807 66.3274 27.2745C65.4314 27.5358 64.4844 27.2278 63.9135 26.4902C63.0531 25.378 61.7531 24.7402 60.347 24.7402C58.941 24.7402 57.6409 25.378 56.7803 26.4902C56.2094 27.228 55.2618 27.5355 54.3666 27.2745C53.0171 26.8804 51.5903 27.1287 50.4526 27.9551C49.3151 28.7817 48.6385 30.0617 48.5958 31.4671C48.5676 32.3995 47.982 33.2054 47.1039 33.5205C45.7805 33.9951 44.7721 35.0345 44.3378 36.3716C43.9033 37.7089 44.1081 39.1424 44.8998 40.3043C45.4249 41.0754 45.4249 42.0715 44.8998 42.8424C44.1081 44.0045 43.9033 45.4379 44.3378 46.7752C44.7721 48.1124 45.7805 49.1516 47.1039 49.6264C47.982 49.9415 48.5678 50.7474 48.5958 51.6799C48.635 52.9726 49.2274 54.1873 50.2215 55.0122C50.8773 55.5566 51.6652 55.8973 52.4898 56.0111V66.2795C52.4898 67.1459 52.9598 67.9467 53.7161 68.3691C54.4715 68.7913 55.4002 68.7725 56.1385 68.3179L60.2749 65.7715C60.3423 65.7298 60.3825 65.7486 60.4196 65.7715L64.5558 68.3179C65.2938 68.772 66.2221 68.7916 66.9783 68.369C67.7348 67.9464 68.2046 67.1456 68.2046 66.2793V56.0108C69.0289 55.8971 69.8168 55.5565 70.4726 55.0122C71.4669 54.1873 72.0594 52.9728 72.0986 51.6797C72.1266 50.7473 72.7124 49.9412 73.5904 49.6263C74.914 49.1516 75.9223 48.1123 76.3567 46.775C76.7911 45.4377 76.5863 44.0044 75.7946 42.8423C75.2689 42.0717 75.2689 41.0755 75.7942 40.3045ZM65.738 66.3971L61.6017 63.8507C60.8327 63.3774 59.8618 63.3766 59.0921 63.8507L54.9558 66.3969C54.8616 66.4542 54.7454 66.3882 54.7454 66.2793V55.7969C55.5208 55.7072 56.2896 56.0227 56.7803 56.6569C57.641 57.7689 58.941 58.4067 60.3471 58.4067C61.7531 58.4067 63.0531 57.7689 63.9135 56.6569C64.4044 56.0225 65.1733 55.7072 65.9486 55.7969V66.2793C65.9486 66.389 65.8308 66.4544 65.738 66.3971ZM73.9301 44.1128C74.3259 44.6936 74.4282 45.4099 74.211 46.0783C73.9939 46.7466 73.4899 47.266 72.8283 47.5034C71.0715 48.1335 69.8999 49.7461 69.8435 51.6117C69.8235 52.2676 69.5352 52.8588 69.0319 53.2765C68.466 53.7462 67.6996 53.9234 66.9594 53.7074C65.1677 53.1847 63.2718 53.8007 62.1294 55.2766C61.6994 55.8323 61.0496 56.1511 60.3468 56.1511C59.6442 56.1511 58.9944 55.8324 58.5641 55.2766C57.692 54.1493 56.3804 53.5236 55.0114 53.5236C54.5876 53.5236 54.1581 53.5836 53.7346 53.7073C52.9872 53.925 52.223 53.7425 51.6616 53.2764C51.1583 52.8586 50.87 52.2674 50.8503 51.6117C50.7937 49.7461 49.6222 48.1335 47.8652 47.5032C47.2038 47.2659 46.6999 46.7466 46.4826 46.0783C46.2655 45.4099 46.3677 44.6935 46.7636 44.1126C47.8143 42.5701 47.8143 40.577 46.7636 39.0344C46.3677 38.4536 46.2655 37.7371 46.4826 37.0687C46.6998 36.4003 47.2038 35.8809 47.8652 35.6437C49.6222 35.0134 50.7937 33.4008 50.8503 31.5352C50.8715 30.8327 51.2096 30.1929 51.7782 29.78C52.3465 29.3669 53.0594 29.2429 53.7345 29.4396C55.5256 29.9625 57.422 29.3464 58.5641 27.8705C58.9942 27.3146 59.6439 26.9958 60.3468 26.9958C61.0496 26.9958 61.6993 27.3145 62.1294 27.8703C63.2716 29.3464 65.1671 29.9624 66.9592 29.4396C67.6339 29.2426 68.3467 29.3667 68.9153 29.7798C69.484 30.1928 69.8223 30.8327 69.8434 31.535C69.8999 33.4006 71.0715 35.0134 72.8283 35.6436C73.4899 35.8807 73.9937 36.4002 74.211 37.0685C74.4282 37.7368 74.3259 38.4535 73.9301 39.0341C72.879 40.5768 72.879 42.5702 73.9301 44.1128Z" fill="white"/>
<path d="M60.3469 32.1211C55.1347 32.1211 50.8943 36.3615 50.8943 41.5737C50.8943 46.786 55.1347 51.0264 60.3469 51.0264C65.559 51.0264 69.7994 46.786 69.7994 41.5737C69.7994 36.3615 65.559 32.1211 60.3469 32.1211ZM60.3469 48.7708C56.3784 48.7708 53.1498 45.5422 53.1498 41.5739C53.1498 37.6055 56.3784 34.3768 60.3469 34.3768C64.3155 34.3768 67.5439 37.6054 67.5439 41.5739C67.5439 45.5424 64.3153 48.7708 60.3469 48.7708Z" fill="white"/>
</svg>
