<svg width="69" height="66" viewBox="0 0 69 66" fill="none" xmlns="http://www.w3.org/2000/svg">
<path d="M34.5 0C29.7955 0 26.12 1.73512 23.4737 5.20536C20.8274 8.6756 19.5043 13.1116 19.5043 18.5134C19.4716 25.2247 21.6278 30.5446 25.973 34.4732C26.5284 34.997 26.7244 35.6682 26.5611 36.4866L25.434 38.8438C25.0746 39.6295 24.5437 40.2433 23.8413 40.6853C23.1389 41.1272 21.6605 41.7574 19.4062 42.5759C19.3082 42.6086 17.2418 43.2798 13.207 44.5893C9.17223 45.8988 7.02415 46.619 6.76278 46.75C4.01847 47.8958 2.22159 49.0908 1.37216 50.3348C0.457386 52.3973 0 57.619 0 66H69C69 57.619 68.5426 52.3973 67.6278 50.3348C66.7784 49.0908 64.9815 47.8958 62.2372 46.75C61.9759 46.619 59.8278 45.8988 55.793 44.5893C51.7582 43.2798 49.6918 42.6086 49.5938 42.5759C47.3395 41.7574 45.8612 41.1272 45.1587 40.6853C44.4563 40.2433 43.9254 39.6295 43.5661 38.8438L42.4389 36.4866C42.2756 35.6682 42.4716 34.997 43.027 34.4732C47.3722 30.5446 49.5284 25.2247 49.4957 18.5134C49.4957 13.1116 48.1726 8.6756 45.5263 5.20536C42.88 1.73512 39.2045 0 34.5 0Z" fill="white"/>
</svg>
