<svg width="41" height="36" viewBox="0 0 41 36" fill="none" xmlns="http://www.w3.org/2000/svg">
<path d="M0.42548 35.9817C0.572387 36.0193 0.728461 35.9985 0.859873 35.9239C0.991284 35.8494 1.08744 35.727 1.12751 35.5834C2.30903 31.2595 7.11082 30.1389 9.98088 29.4683C10.7001 29.3007 11.2679 29.1679 11.6373 29.0115C14.9066 27.6197 15.9722 25.3807 16.2911 23.747C16.3101 23.6498 16.3026 23.5494 16.2693 23.456C16.2361 23.3626 16.1783 23.2794 16.1018 23.2148C14.3995 21.7735 12.9634 19.6099 12.0571 17.1211C12.0316 17.0498 11.9914 16.9843 11.939 16.9287C10.7403 15.6506 10.052 14.2993 10.052 13.2225C10.052 12.5936 10.294 12.1717 10.8389 11.8533C10.9205 11.8054 10.9887 11.7384 11.0374 11.6583C11.0861 11.5781 11.1136 11.4874 11.1177 11.3942C11.3712 5.66279 15.5329 1.15101 20.6375 1.12176L20.7602 1.12963C25.8901 1.19939 30.0254 5.80793 30.1734 11.6204C30.1755 11.6998 30.1947 11.7779 30.2299 11.8495C30.2651 11.9211 30.3155 11.9845 30.3776 12.0355C30.7366 12.3337 30.9041 12.7117 30.9041 13.2248C30.9041 14.126 30.4143 15.2343 29.5264 16.3437C29.4841 16.397 29.4515 16.4572 29.4301 16.5214C28.5124 19.3748 26.8651 21.8939 24.9128 23.4354C24.8319 23.4994 24.7702 23.5838 24.7343 23.6795C24.6983 23.7751 24.6894 23.8786 24.7086 23.9788C25.0275 25.6114 26.0931 27.8493 29.3624 29.2433C29.749 29.4076 30.3489 29.5358 31.1094 29.6967C33.9508 30.2998 38.7056 31.3113 39.8722 35.5834C39.8918 35.6548 39.9255 35.7217 39.9714 35.7802C40.0174 35.8388 40.0746 35.888 40.1399 35.9248C40.2052 35.9617 40.2773 35.9856 40.352 35.9952C40.4267 36.0048 40.5026 35.9998 40.5754 35.9806C40.6481 35.9614 40.7163 35.9283 40.776 35.8832C40.8358 35.8382 40.8858 35.782 40.9235 35.718C40.9611 35.6539 40.9854 35.5833 40.9952 35.51C41.0049 35.4367 40.9999 35.3622 40.9803 35.2909C39.6324 30.3549 34.2456 29.2107 31.3526 28.5963C30.6816 28.4535 30.1023 28.3308 29.8201 28.2093C27.6865 27.3002 26.3719 25.9152 25.9073 24.0857C27.8884 22.4171 29.5459 19.8428 30.4934 16.9557C31.4994 15.6731 32.0524 14.3522 32.0524 13.2237C32.0524 12.471 31.8046 11.8431 31.3136 11.3526C31.0406 5.04734 26.4533 0.0821346 20.7602 0.00225026L20.5893 0C14.9995 0.0292534 10.3927 4.86394 9.99005 11.06C9.27197 11.5776 8.90719 12.3033 8.90719 13.2248C8.90719 14.5558 9.6746 16.1479 11.0179 17.6083C11.9459 20.1095 13.3843 22.3069 15.097 23.8449C14.6347 25.6811 13.319 27.0707 11.1808 27.9809C10.9043 28.099 10.3537 28.2284 9.7159 28.3769C6.8011 29.0565 1.37758 30.3223 0.019404 35.2931C-0.0198196 35.4373 0.000924914 35.5908 0.0770756 35.7199C0.153226 35.849 0.278548 35.9432 0.42548 35.9817Z" fill="white"/>
</svg>
